<?xml version="1.0" encoding="iso-8859-1"?>
<!-- Generator: Adobe Illustrator 16.0.0, SVG Export Plug-In . SVG Version: 6.00 Build 0)  -->
<!DOCTYPE svg PUBLIC "-//W3C//DTD SVG 1.1//EN" "http://www.w3.org/Graphics/SVG/1.1/DTD/svg11.dtd">
<!-- License: CC0. Made by SVG Repo: https://www.svgrepo.com/svg/67520/ice-cream-on-cone -->
<svg version="1.1" id="Capa_1" xmlns="http://www.w3.org/2000/svg" xmlns:xlink="http://www.w3.org/1999/xlink" x="0px" y="0px"
	 width="551.911px" height="551.912px" viewBox="0 0 551.911 551.912" style="enable-background:new 0 0 551.911 551.912;"
	 xml:space="preserve">
<g>
	<path d="M397.085,187.841c4.48-10.379,6.98-21.796,6.98-33.798c0-26.654-12.218-50.442-31.356-66.112
		c0.029-0.842,0.13-1.664,0.13-2.524C372.839,38.234,334.596,0,287.428,0c-43.394,0-79.147,32.397-84.606,74.313
		c-32.128,12.262-54.987,43.288-54.987,79.73c0,12.002,2.506,23.418,6.978,33.798H397.085z M284.745,10.592
		c36.517-3.742,69.622,26.303,73.79,66.972c0.337,3.328-2.087,6.295-5.415,6.638c-3.327,0.346-6.295-2.08-6.644-5.405
		c-3.476-34.034-30.623-59.223-60.502-56.167c-3.334,0.346-6.295-2.083-6.641-5.405C279,13.902,281.411,10.935,284.745,10.592z
		 M213.481,82.399c3.139-1.149,6.614,0.455,7.77,3.591c1.149,3.139-0.452,6.62-3.594,7.77
		c-32.104,11.816-49.784,44.36-39.416,72.546c1.156,3.142-0.446,6.623-3.588,7.772c-0.691,0.255-1.392,0.376-2.095,0.376
		c-2.465,0-4.776-1.514-5.677-3.958C154.214,136.042,175.112,96.52,213.481,82.399z M128.688,201.333l146.36,348.404l0.907,2.175
		l147.268-350.579H128.688z M260.517,297.5l28.886,29.607l-36.011,35.146l-28.889-29.607L260.517,297.5z M219.91,327.929
		l-30.435-31.186l36.008-35.139l30.432,31.191L219.91,327.929z M294.001,331.819l29.896,30.642l-36.008,35.145l-29.906-30.646
		L294.001,331.819z M293.067,323.532l-28.889-29.613l37.223-36.321l28.88,29.607L293.067,323.532z M305.066,254.027l38.455-37.513
		l28.88,29.596l-38.449,37.524L305.066,254.027z M271.729,216.476h62.394l-33.668,32.843l-30.425-31.176L271.729,216.476z
		 M296.803,252.889l-37.22,36.325l-30.431-31.18l37.217-36.334L296.803,252.889z M198.876,216.476h62.397l0.502,0.52l-37.22,36.328
		l-30.934-31.708L198.876,216.476z M189.445,216.476l-0.428,0.425l-0.414-0.425H189.445z M151.472,216.476h29.979l3.901,4.001
		l-22.836,22.292L151.472,216.476z M181.939,289.019l-16.686-39.727l24.695-24.101l30.94,31.706l-36.005,35.142L181.939,289.019z
		 M187.338,301.875l28.907,29.625l-11.68,11.396L187.338,301.875z M207.313,349.421l13.527-13.211l28.889,29.607l-25.204,24.594
		L207.313,349.421z M243.18,434.802l-15.906-37.871l27.054-26.403l29.908,30.647l-37.835,36.919L243.18,434.802z M248.58,447.658
		l29.699,30.429l-11.99,11.709L248.58,447.658z M275.955,512.818l-6.936-16.497l13.858-13.518l3.972,4.078L275.955,512.818z
		 M289,481.751l-2.464-2.524l5.976-5.834L289,481.751z M299.061,457.806l-17.129,16.71l-30.938-31.717l37.835-36.919l22.401,22.957
		L299.061,457.806z M313.389,423.725L292.5,402.31l36.008-35.145l6.029,6.188L313.389,423.725z M336.688,368.241l-4.521-4.646
		l10.977-10.711L336.688,368.241z M349.681,337.316l-22.106,21.574l-29.908-30.642l37.226-36.339l23.667,24.27L349.681,337.316z
		 M360.71,311.06l-22.165-22.715L377,250.82l6.301,6.458L360.71,311.06z M385.452,252.156l-4.793-4.915l11.626-11.337
		L385.452,252.156z M376.066,242.54l-25.435-26.063h49.811l-1.62,3.856L376.066,242.54z"/>
</g>
</svg>
